<?xml version="1.0" standalone="no"?>
<!DOCTYPE svg PUBLIC "-//W3C//DTD SVG 20010904//EN"
 "http://www.w3.org/TR/2001/REC-SVG-20010904/DTD/svg10.dtd">
<svg version="1.0" xmlns="http://www.w3.org/2000/svg"
 width="30 height="30 viewBox="0 0 300.000000 300.000000"
 preserveAspectRatio="xMidYMid meet">
<metadata>
Created by potrace 1.10, written by Peter Selinger 2001-2011
</metadata>
<g transform="translate(0.000000,300.000000) scale(0.100000,-0.100000)"
fill="#000000" stroke="none">
<path d="M625 2975 c-323 -72 -591 -373 -611 -688 -7 -102 7 -87 40 45 47 187
117 312 239 423 92 84 231 154 374 189 56 13 110 29 120 35 27 15 -87 13 -162
-4z"/>
<path d="M2230 2975 c19 -9 71 -25 116 -35 202 -47 374 -162 479 -320 56 -85
79 -139 116 -274 40 -147 52 -163 45 -59 -23 352 -352 679 -705 699 -85 5 -86
5 -51 -11z"/>
<path d="M740 2860 c-178 -20 -343 -110 -448 -243 -62 -79 -84 -119 -118 -209
l-27 -73 -10 -418 c-12 -555 2 -1229 27 -1302 83 -234 256 -399 487 -462 59
-17 130 -18 849 -18 719 0 790 1 849 18 196 54 354 183 442 362 77 158 74 116
74 985 0 869 3 827 -75 985 -87 178 -238 302 -436 361 -53 16 -129 18 -804 20
-410 1 -774 -2 -810 -6z m1608 -56 c172 -48 332 -176 404 -324 77 -159 73
-102 73 -980 0 -878 4 -821 -73 -980 -51 -104 -168 -221 -272 -272 -159 -77
-102 -73 -980 -73 -878 0 -821 -4 -980 73 -104 51 -221 168 -272 272 -71 147
-68 101 -68 980 0 879 -3 833 68 980 48 97 167 220 262 268 146 74 94 70 983
71 700 1 806 -1 855 -15z"/>
<path d="M2254 2594 c-47 -17 -105 -69 -131 -117 -12 -22 -18 -55 -18 -108 0
-67 3 -81 30 -125 82 -132 263 -153 374 -43 116 117 82 313 -68 385 -48 24
-136 27 -187 8z m192 -59 c49 -29 94 -108 94 -164 0 -58 -42 -136 -91 -168
-36 -24 -53 -28 -110 -28 -59 0 -73 4 -110 30 -62 44 -92 105 -86 177 8 90 57
151 145 179 41 13 111 2 158 -26z"/>
<path d="M2269 2439 c-52 -56 -32 -139 41 -169 60 -25 130 30 130 102 0 90
-109 133 -171 67z m124 -31 c24 -28 21 -55 -8 -83 -31 -32 -59 -32 -91 1 -20
19 -24 31 -20 52 15 61 79 77 119 30z"/>
<path d="M1328 2300 c-314 -68 -562 -317 -628 -633 -25 -117 -25 -217 0 -334
33 -156 102 -285 214 -401 321 -333 851 -333 1172 0 34 34 76 85 94 111 84
126 140 308 140 457 0 149 -56 331 -140 457 -184 274 -529 412 -852 343z m370
-51 c268 -67 493 -294 559 -564 23 -94 22 -276 -1 -370 -92 -375 -469 -637
-844 -587 -329 44 -581 263 -668 582 -25 90 -25 290 0 380 116 424 530 667
954 559z"/>
<path d="M1418 2178 c-149 -14 -279 -78 -393 -193 -90 -90 -145 -176 -178
-280 -18 -59 -22 -93 -22 -210 0 -127 3 -147 28 -214 80 -218 246 -374 467
-442 105 -32 255 -32 360 0 125 38 206 87 295 176 89 90 134 158 173 267 24
67 27 86 27 218 0 132 -3 151 -27 218 -39 109 -84 177 -173 267 -151 151 -336
216 -557 193z m269 -63 c208 -66 362 -220 428 -428 35 -111 35 -263 0 -374
-66 -208 -220 -362 -428 -428 -111 -35 -263 -35 -374 0 -153 48 -288 154 -366
286 -61 105 -87 201 -87 329 0 88 5 124 25 187 33 103 87 193 161 267 75 75
153 122 259 158 112 38 267 40 382 3z"/>
<path d="M14 713 c23 -349 346 -673 698 -700 107 -8 97 9 -21 36 -155 37 -252
80 -352 156 -146 113 -236 260 -288 470 -31 127 -44 140 -37 38z"/>
<path d="M2977 783 c-3 -5 -17 -55 -31 -113 -83 -331 -287 -535 -616 -616
-136 -33 -152 -49 -43 -41 350 26 673 347 700 698 5 72 2 92 -10 72z"/>
</g>
</svg>
