<?xml version="1.0" standalone="no"?>
<!DOCTYPE svg PUBLIC "-//W3C//DTD SVG 20010904//EN"
 "http://www.w3.org/TR/2001/REC-SVG-20010904/DTD/svg10.dtd">
<svg version="1.0" xmlns="http://www.w3.org/2000/svg"
 width="25" height="25" viewBox="0 0 300.000000 300.000000"
 preserveAspectRatio="xMidYMid meet">
<metadata>
Created by potrace 1.10, written by Peter Selinger 2001-2011
</metadata>
<g transform="translate(0.000000,300.000000) scale(0.100000,-0.100000)"
fill="#000000" stroke="none">
<path d="M1603 2670 c-40 -24 -43 -35 -88 -330 -67 -439 -126 -824 -151 -990
-14 -91 -32 -205 -39 -255 -7 -49 -34 -224 -59 -388 -42 -273 -45 -300 -32
-332 38 -91 180 -83 205 12 6 21 26 144 46 273 67 439 126 824 151 990 14 91
32 206 39 255 7 50 34 224 59 388 42 273 45 300 32 332 -26 61 -102 82 -163
45z"/>
<path d="M755 2331 c-34 -20 -721 -747 -741 -783 -17 -29 -17 -67 0 -96 22
-40 718 -772 749 -789 85 -44 188 59 145 145 -8 16 -154 176 -324 356 -170
180 -309 331 -309 336 0 5 143 160 317 345 344 364 347 368 313 438 -17 35
-65 67 -102 67 -10 0 -31 -8 -48 -19z"/>
<path d="M2143 2334 c-41 -20 -67 -74 -59 -120 5 -26 72 -103 324 -369 174
-185 317 -340 317 -345 0 -5 -139 -156 -309 -336 -170 -180 -316 -340 -324
-356 -43 -86 60 -189 145 -145 31 17 727 749 749 789 17 29 17 67 0 96 -21 39
-717 772 -747 788 -35 18 -56 17 -96 -2z"/>
</g>
</svg>
