<?xml version="1.0" standalone="no"?>
<!DOCTYPE svg PUBLIC "-//W3C//DTD SVG 20010904//EN"
 "http://www.w3.org/TR/2001/REC-SVG-20010904/DTD/svg10.dtd">
<svg version="1.0" xmlns="http://www.w3.org/2000/svg"
 width="30" height="30" viewBox="0 0 300.000000 300.000000"
 preserveAspectRatio="xMidYMid meet">
<metadata>
Created by potrace 1.10, written by Peter Selinger 2001-2011
</metadata>
<g transform="translate(0.000000,300.000000) scale(0.100000,-0.100000)"
fill="#000000" stroke="none">
<path d="M1715 2986 c-265 -52 -437 -208 -505 -461 -19 -69 -22 -116 -27 -352
l-6 -273 -228 0 -229 0 0 -265 0 -265 230 0 230 0 0 -685 0 -685 275 0 275 0
0 685 0 685 230 0 c127 0 230 2 230 5 0 2 6 51 14 107 8 57 22 159 31 228 9
69 18 140 21 158 l5 32 -267 0 -266 0 4 223 c5 240 9 261 61 315 49 51 103 62
309 62 l178 0 0 239 0 238 -57 7 c-131 14 -437 16 -508 2z"/>
</g>
</svg>
