<?xml version="1.0" standalone="no"?>
<!DOCTYPE svg PUBLIC "-//W3C//DTD SVG 20010904//EN"
 "http://www.w3.org/TR/2001/REC-SVG-20010904/DTD/svg10.dtd">
<svg version="1.0" xmlns="http://www.w3.org/2000/svg"
 width="25" height="25" viewBox="0 0 300.000000 300.000000"
 preserveAspectRatio="xMidYMid meet">
<metadata>
Created by potrace 1.10, written by Peter Selinger 2001-2011
</metadata>
<g transform="translate(0.000000,300.000000) scale(0.100000,-0.100000)"
fill="#000000" stroke="none">
<path d="M29 2971 l-29 -29 0 -206 c0 -202 0 -205 24 -233 l24 -28 217 0 217
0 24 28 c20 23 24 39 24 88 l0 59 178 0 177 -1 -35 -27 c-151 -118 -239 -213
-320 -348 -82 -135 -145 -316 -157 -455 -5 -63 -7 -67 -38 -82 -162 -77 -200
-287 -77 -421 43 -45 117 -76 187 -76 175 0 300 165 251 332 -18 62 -68 125
-121 153 l-37 20 7 54 c46 369 316 694 665 800 l54 17 31 -40 c98 -129 312
-129 410 0 l31 40 54 -17 c252 -76 464 -264 581 -513 40 -86 73 -198 84 -287
l7 -54 -37 -20 c-53 -28 -103 -91 -121 -153 -49 -167 76 -332 251 -332 147 0
258 111 258 258 1 107 -53 194 -148 239 -31 15 -33 19 -38 82 -24 267 -189
570 -405 743 -44 35 -88 68 -98 75 -15 9 18 12 164 12 l182 1 0 -59 c0 -49 4
-65 24 -88 l24 -28 217 0 217 0 24 28 c24 28 24 31 24 233 l0 206 -29 29 -29
29 -202 0 c-256 0 -269 -6 -270 -117 l0 -63 -359 0 -358 0 -30 48 c-108 174
-338 174 -446 0 l-30 -48 -358 0 -359 0 0 63 c-1 111 -14 117 -270 117 l-202
0 -29 -29z"/>
<path d="M1058 1697 c-235 -352 -348 -531 -348 -548 0 -28 18 -56 82 -126 94
-104 188 -286 227 -438 11 -42 22 -79 24 -81 3 -3 31 3 63 13 52 16 99 18 394
18 295 0 342 -2 394 -18 32 -10 60 -16 63 -13 2 2 13 39 24 81 39 152 133 334
227 438 64 70 82 98 82 126 0 18 -113 196 -350 551 l-350 525 0 -415 0 -415
29 -13 c82 -36 141 -135 141 -234 -1 -150 -109 -258 -260 -258 -151 0 -259
108 -260 258 0 99 59 198 141 234 l29 13 0 412 c0 227 -1 413 -2 413 -2 0
-159 -236 -350 -523z"/>
<path d="M1448 1220 c-24 -15 -41 -72 -29 -103 41 -106 196 -49 160 60 -6 18
-19 38 -29 43 -24 13 -80 12 -102 0z"/>
<path d="M1185 350 c-106 -16 -210 -93 -260 -194 -32 -65 -32 -91 4 -127 l29
-29 542 0 542 0 29 29 c16 16 29 40 29 53 0 39 -46 121 -96 171 -56 56 -118
86 -199 98 -72 10 -549 10 -620 -1z"/>
</g>
</svg>
