<?xml version="1.0" standalone="no"?>
<!DOCTYPE svg PUBLIC "-//W3C//DTD SVG 20010904//EN"
 "http://www.w3.org/TR/2001/REC-SVG-20010904/DTD/svg10.dtd">
<svg version="1.0" xmlns="http://www.w3.org/2000/svg"
 width="25" height="25" viewBox="0 0 300.000000 300.000000"
 preserveAspectRatio="xMidYMid meet">
<metadata>
Created by potrace 1.10, written by Peter Selinger 2001-2011
</metadata>
<g transform="translate(0.000000,300.000000) scale(0.100000,-0.100000)"
fill="#000000" stroke="none">
<path d="M2021 2983 c-19 -16 -23 -43 -45 -253 -22 -207 -23 -238 -10 -257 10
-15 24 -23 44 -23 50 0 57 24 82 279 l22 233 -23 19 c-29 24 -43 24 -70 2z"/>
<path d="M1085 2581 c-22 -10 -51 -30 -65 -45 -14 -14 -133 -243 -265 -509
l-240 -482 -155 -106 c-218 -148 -265 -216 -265 -385 0 -73 4 -88 38 -156 46
-93 121 -166 205 -199 85 -33 196 -32 282 4 35 14 67 23 71 19 3 -4 102 -148
218 -320 117 -171 227 -323 245 -337 98 -74 230 -71 314 8 56 52 84 156 63
233 -6 24 -90 158 -206 329 -108 158 -195 289 -193 290 2 2 203 20 446 39 272
22 456 42 476 50 49 20 103 82 128 145 45 115 24 325 -53 519 -165 417 -521
813 -811 903 -78 25 -180 25 -233 0z m194 -110 c181 -56 390 -243 566 -506
251 -374 316 -733 153 -836 -69 -42 -196 -4 -341 104 -242 179 -461 488 -564
796 -30 88 -37 125 -41 217 -4 97 -2 116 16 157 17 38 30 52 64 67 54 24 71
25 147 1z m-264 -571 c119 -288 335 -581 549 -742 45 -33 82 -63 84 -67 1 -4
-152 -19 -340 -33 -266 -21 -346 -24 -355 -15 -7 7 -82 115 -167 240 l-154
228 58 122 c31 67 101 210 155 317 l97 194 24 -89 c12 -50 35 -119 49 -155z
m-312 -699 l145 -215 -106 -74 c-144 -100 -192 -122 -268 -122 -222 0 -348
275 -200 436 46 49 267 205 278 195 3 -3 71 -102 151 -220z m391 -431 c309
-455 326 -482 326 -523 0 -50 -25 -92 -66 -112 -39 -19 -56 -19 -98 -1 -37 15
-46 28 -300 403 l-177 263 92 60 c51 34 100 59 108 58 9 -2 60 -68 115 -148z"/>
<path d="M1360 2021 c-54 -19 -100 -59 -100 -87 0 -18 36 -54 54 -54 7 0 35 9
61 21 36 16 62 20 105 17 103 -7 171 -75 178 -177 5 -68 -16 -116 -72 -170
-20 -19 -36 -45 -36 -56 0 -29 30 -55 62 -55 34 0 100 64 135 132 36 70 39
187 6 259 -67 148 -242 224 -393 170z"/>
<path d="M2474 2424 c-115 -75 -212 -139 -215 -143 -21 -20 -19 -52 5 -76 14
-14 31 -25 39 -25 14 0 392 244 435 281 40 34 17 99 -35 99 -11 0 -114 -61
-229 -136z"/>
<path d="M2361 1901 c-28 -28 -27 -67 2 -85 20 -13 456 -96 503 -96 26 0 54
30 54 56 0 45 -18 51 -255 94 -126 22 -242 43 -257 46 -19 4 -33 -1 -47 -15z"/>
</g>
</svg>
