<?xml version="1.0" standalone="no"?>
<!DOCTYPE svg PUBLIC "-//W3C//DTD SVG 20010904//EN"
 "http://www.w3.org/TR/2001/REC-SVG-20010904/DTD/svg10.dtd">
<svg version="1.0" xmlns="http://www.w3.org/2000/svg"
 width="25" height="25" viewBox="0 0 300.000000 300.000000"
 preserveAspectRatio="xMidYMid meet">
<metadata>
Created by potrace 1.10, written by Peter Selinger 2001-2011
</metadata>
<g transform="translate(0.000000,300.000000) scale(0.100000,-0.100000)"
fill="#000000" stroke="none">
<path d="M2300 2991 c-87 -28 -114 -55 -237 -237 l-97 -144 -809 0 c-586 0
-820 -3 -848 -12 -51 -15 -114 -69 -142 -122 l-22 -41 -3 -794 c-3 -873 -4
-858 58 -933 16 -20 51 -47 77 -60 48 -23 50 -23 534 -28 l487 -5 -29 -120
c-16 -66 -31 -130 -34 -142 -5 -22 -10 -23 -103 -23 -82 0 -103 -4 -137 -23
-51 -29 -83 -77 -91 -138 l-7 -49 -98 0 c-86 0 -102 -3 -119 -20 -25 -25 -26
-62 -2 -83 17 -16 89 -17 824 -17 767 0 806 1 821 18 23 25 21 58 -3 82 -17
17 -33 20 -119 20 l-98 0 -7 49 c-8 61 -40 109 -91 138 -34 19 -55 23 -137 23
-93 0 -98 1 -103 23 -3 12 -18 76 -34 142 l-29 120 487 5 c484 5 486 5 534 28
26 13 61 40 77 60 62 75 61 60 58 933 l-3 794 -22 41 c-42 79 -129 134 -212
134 -36 0 -35 -3 -15 46 20 48 15 154 -10 201 -23 45 -75 96 -122 118 -43 21
-135 29 -174 16z m141 -134 c43 -29 59 -60 59 -119 0 -45 -5 -54 -87 -155
-228 -282 -327 -398 -338 -397 -13 1 -165 113 -165 122 0 2 80 124 178 270
112 167 188 272 207 283 42 26 104 24 146 -4z m-561 -372 c0 -3 -58 -93 -129
-199 l-130 -194 -68 -11 c-273 -47 -386 -274 -308 -619 25 -110 54 -126 134
-72 62 42 99 50 246 50 115 0 136 3 180 24 59 27 107 72 138 130 19 35 22 57
22 149 l0 108 190 232 c105 127 223 271 263 319 l72 88 81 0 c52 0 90 -5 109
-15 61 -32 60 -18 60 -650 l0 -575 -932 0 c-853 0 -933 -1 -950 -17 -22 -19
-23 -52 -4 -79 14 -19 37 -19 951 -22 l936 -2 -3 -160 -3 -160 -33 -32 -32
-33 -1170 0 -1170 0 -32 33 -33 32 -3 160 -3 160 91 0 c84 0 93 2 116 25 18
19 23 31 19 48 -12 39 -34 47 -132 47 l-93 0 0 575 c0 495 2 580 15 605 32 62
-3 59 838 60 422 0 767 -2 767 -5z m45 -340 c41 -31 75 -58 75 -61 0 -3 -27
-39 -61 -80 l-60 -74 -44 31 c-24 17 -58 43 -75 58 l-30 26 51 78 c29 42 56
77 60 77 5 0 43 -25 84 -55z m-193 -252 c58 -43 109 -87 112 -98 14 -49 6
-132 -17 -165 -42 -64 -72 -73 -236 -75 -108 -1 -157 -6 -190 -19 -24 -9 -46
-14 -49 -11 -3 2 -7 49 -10 103 -6 123 13 195 65 253 41 45 74 65 130 78 74
18 85 14 195 -66z m-143 -1310 c6 -21 20 -78 31 -128 12 -49 23 -98 26 -107 5
-17 -7 -18 -146 -18 -139 0 -151 1 -146 18 3 9 14 58 26 107 11 50 25 107 31
128 l10 37 79 0 79 0 10 -37z m373 -390 c10 -9 18 -29 18 -45 l0 -28 -480 0
-480 0 0 27 c0 14 7 35 17 45 15 17 43 18 461 18 400 0 447 -2 464 -17z"/>
<path d="M628 1238 c-26 -21 -30 -53 -10 -78 22 -28 70 -30 89 -4 40 54 -26
123 -79 82z"/>
</g>
</svg>
