<?xml version="1.0" standalone="no"?>
<!DOCTYPE svg PUBLIC "-//W3C//DTD SVG 20010904//EN"
 "http://www.w3.org/TR/2001/REC-SVG-20010904/DTD/svg10.dtd">
<svg version="1.0" xmlns="http://www.w3.org/2000/svg"
 width="25" height="25" viewBox="0 0 300.000000 300.000000"
 preserveAspectRatio="xMidYMid meet">
<metadata>
Created by potrace 1.10, written by Peter Selinger 2001-2011
</metadata>
<g transform="translate(0.000000,300.000000) scale(0.100000,-0.100000)"
fill="#000000" stroke="none">
<path d="M785 2981 c-22 -10 -54 -33 -72 -51 -67 -68 -63 13 -63 -1430 0
-1443 -4 -1362 63 -1430 71 -73 35 -70 787 -70 752 0 716 -3 787 70 67 68 63
-13 63 1430 0 1443 4 1362 -63 1430 -71 73 -35 70 -787 70 -632 0 -678 -2
-715 -19z m1045 -130 c14 -27 13 -66 -4 -80 -9 -8 -105 -11 -332 -9 l-319 3
-9 27 c-7 18 -6 35 2 53 l12 25 319 0 c306 0 321 -1 331 -19z m358 -1188 l-3
-968 -685 0 -685 0 -3 968 -2 967 690 0 690 0 -2 -967z m-617 -1189 c74 -37
90 -149 31 -212 -120 -129 -320 44 -209 181 41 51 113 64 178 31z"/>
</g>
</svg>
