<?xml version="1.0" standalone="no"?>
<!DOCTYPE svg PUBLIC "-//W3C//DTD SVG 20010904//EN"
 "http://www.w3.org/TR/2001/REC-SVG-20010904/DTD/svg10.dtd">
<svg version="1.0" xmlns="http://www.w3.org/2000/svg"
 width="300.000000pt" height="300.000000pt" viewBox="0 0 300.000000 300.000000"
 preserveAspectRatio="xMidYMid meet">
<metadata>
Created by potrace 1.10, written by Peter Selinger 2001-2011
</metadata>
<g transform="translate(0.000000,300.000000) scale(0.100000,-0.100000)"
fill="#000000" stroke="none">
<path d="M494 2682 c-85 -30 -147 -92 -176 -176 -38 -111 -15 -211 70 -296 70
-69 142 -96 229 -86 234 27 339 302 183 480 -72 82 -202 115 -306 78z m205
-52 c84 -43 131 -122 131 -217 0 -219 -252 -329 -412 -180 -103 96 -96 280 14
370 71 57 186 69 267 27z"/>
<path d="M2000 1934 c-146 -29 -309 -134 -352 -230 -21 -46 -27 -24 -21 86 l6
110 -242 0 -241 0 0 -800 0 -800 250 0 250 0 0 453 c0 477 4 537 45 617 29 56
58 84 115 109 138 59 289 21 344 -87 42 -83 46 -139 46 -629 l0 -463 250 0
250 0 0 498 c0 494 -6 618 -36 742 -48 195 -163 320 -344 375 -54 16 -268 29
-320 19z m310 -60 c30 -9 75 -26 100 -39 53 -27 139 -115 169 -173 31 -60 59
-175 71 -282 15 -143 13 -1013 -2 -1028 -17 -17 -379 -17 -396 0 -9 9 -12 122
-12 448 0 472 -6 532 -55 615 -53 92 -123 128 -245 128 -100 0 -163 -22 -223
-81 -96 -92 -104 -138 -112 -672 -4 -239 -10 -438 -14 -443 -4 -4 -95 -6 -202
-5 l-194 3 0 755 0 755 184 3 c127 2 188 -1 197 -9 10 -8 14 -34 14 -82 0 -70
15 -107 44 -107 6 0 44 33 83 74 121 125 243 170 433 161 58 -2 130 -12 160
-21z"/>
<path d="M340 1100 l0 -800 250 0 250 0 0 800 0 800 -250 0 -250 0 0 -800z
m445 0 l0 -755 -200 0 -200 0 -3 745 c-1 410 0 751 3 758 3 10 50 12 202 10
l198 -3 0 -755z"/>
</g>
</svg>
