<?xml version="1.0" standalone="no"?>
<!DOCTYPE svg PUBLIC "-//W3C//DTD SVG 20010904//EN"
 "http://www.w3.org/TR/2001/REC-SVG-20010904/DTD/svg10.dtd">
<svg version="1.0" xmlns="http://www.w3.org/2000/svg"
 width="300.000000pt" height="300.000000pt" viewBox="0 0 300.000000 300.000000"
 preserveAspectRatio="xMidYMid meet">
<metadata>
Created by potrace 1.10, written by Peter Selinger 2001-2011
</metadata>
<g transform="translate(0.000000,300.000000) scale(0.100000,-0.100000)"
fill="#000000" stroke="none">
<path d="M1650 2971 c-89 -25 -110 -34 -185 -82 -122 -77 -201 -189 -250 -354
-26 -85 -27 -105 -32 -362 l-6 -273 -228 0 -229 0 0 -265 0 -265 230 0 230 0
0 -685 c0 -678 0 -685 20 -685 20 0 20 7 20 683 l0 684 -23 21 c-22 21 -32 22
-224 22 -174 0 -202 2 -207 16 -8 20 -8 398 0 418 5 14 33 16 208 16 197 0
203 1 223 23 20 21 21 37 26 287 5 287 16 360 70 467 85 166 206 255 415 307
57 14 111 30 120 35 30 18 -107 11 -178 -8z"/>
<path d="M1995 2974 c39 -8 105 -18 149 -23 46 -5 82 -15 87 -23 5 -7 9 -93 9
-190 0 -165 -1 -178 -19 -188 -11 -5 -83 -10 -161 -10 -78 0 -160 -5 -183 -11
-68 -17 -118 -58 -152 -124 l-30 -59 -3 -217 -4 -218 26 -25 25 -26 231 0
c193 0 232 -2 236 -15 8 -20 -46 -407 -58 -422 -8 -10 -62 -13 -210 -13 -198
0 -199 0 -223 -25 l-25 -24 0 -681 c0 -673 0 -680 20 -680 20 0 20 7 20 685
l0 685 229 0 229 0 6 33 c3 17 12 88 21 157 8 69 20 154 25 190 5 36 11 84 15
108 l5 42 -266 0 -266 0 4 223 c5 240 9 261 61 315 49 51 103 62 309 62 l178
0 0 239 0 238 -77 7 c-42 3 -121 5 -177 5 l-101 -1 70 -14z"/>
</g>
</svg>
