<?xml version="1.0" standalone="no"?>
<!DOCTYPE svg PUBLIC "-//W3C//DTD SVG 20010904//EN"
 "http://www.w3.org/TR/2001/REC-SVG-20010904/DTD/svg10.dtd">
<svg version="1.0" xmlns="http://www.w3.org/2000/svg"
 width="30" height="30" viewBox="0 0 300.000000 300.000000"
 preserveAspectRatio="xMidYMid meet">
<metadata>
Created by potrace 1.10, written by Peter Selinger 2001-2011
</metadata>
<g transform="translate(0.000000,300.000000) scale(0.100000,-0.100000)"
fill="#000000" stroke="none">
<path d="M860 2989 c-361 -23 -615 -175 -745 -444 -52 -107 -80 -212 -94 -354
-14 -135 -14 -1256 -1 -1390 28 -269 132 -475 308 -611 144 -112 307 -164 561
-180 202 -13 1030 -13 1232 0 336 21 540 114 694 315 102 132 156 282 175 484
14 147 13 1272 -1 1403 -28 256 -128 455 -296 589 -149 119 -308 171 -570 188
-180 13 -1076 12 -1263 0z m1190 -269 c280 -14 388 -48 506 -162 72 -69 123
-163 148 -273 42 -178 43 -1383 2 -1568 -47 -213 -183 -356 -392 -411 -109
-29 -363 -38 -934 -33 -618 6 -657 10 -796 77 -135 65 -229 183 -269 337 -30
115 -37 298 -32 909 4 515 7 609 21 674 52 229 189 370 411 425 39 10 138 20
225 25 229 10 897 11 1110 0z"/>
<path d="M2235 2466 c-116 -52 -142 -218 -47 -298 76 -64 171 -62 238 6 70 70
78 160 21 240 -40 56 -144 82 -212 52z"/>
<path d="M1372 2260 c-365 -66 -632 -384 -633 -755 0 -129 21 -227 76 -340 76
-158 203 -285 360 -360 96 -46 173 -65 290 -72 365 -21 692 218 787 576 28
106 28 277 -1 384 -24 93 -84 210 -146 289 -92 117 -254 224 -400 263 -72 19
-259 28 -333 15z m301 -290 c222 -83 354 -299 326 -533 -28 -234 -222 -418
-459 -434 -95 -7 -171 9 -260 53 -118 59 -201 155 -247 284 -32 92 -32 229 1
322 57 160 189 281 354 323 78 20 210 13 285 -15z"/>
</g>
</svg>
